<?xml version="1.0" encoding="utf-8"?>
<!-- Generator: Adobe Illustrator 21.0.0, SVG Export Plug-In . SVG Version: 6.00 Build 0)  -->
<svg version="1.1" id="Layer_1" xmlns="http://www.w3.org/2000/svg" xmlns:xlink="http://www.w3.org/1999/xlink" x="0px" y="0px"
	 viewBox="0 0 44.4 18.2" style="enable-background:new 0 0 44.4 18.2;" xml:space="preserve">
<g>
	<path d="M4.8,7.1c0,0.5,0,0.9,0,1.3H4l0-0.8h0C3.7,8,3.2,8.5,2.4,8.5c-0.8,0-1.7-0.4-1.7-2.1V3.5h0.9v2.7c0,0.9,0.3,1.5,1.1,1.5
		c0.6,0,1-0.4,1.2-0.8c0-0.1,0.1-0.3,0.1-0.4v-3h0.9V7.1z"/>
	<path d="M6.2,4.8c0-0.5,0-0.9,0-1.3H7l0,0.8h0c0.2-0.5,0.8-0.9,1.6-0.9c0.7,0,1.7,0.4,1.7,2.1v2.9H9.5V5.6c0-0.8-0.3-1.4-1.1-1.4
		c-0.6,0-1,0.4-1.2,0.9c0,0.1-0.1,0.3-0.1,0.4v2.9H6.2V4.8z"/>
	<path d="M13,2.9h-1.8V1.6h5.2v1.3h-1.8v5.5H13V2.9z"/>
	<path d="M19.3,8.4l-0.1-0.5h0c-0.3,0.4-0.8,0.6-1.4,0.6c-1,0-1.6-0.7-1.6-1.5c0-1.3,1.1-1.9,2.9-1.9V5c0-0.3-0.1-0.6-0.9-0.6
		c-0.5,0-1,0.2-1.3,0.4l-0.3-1c0.3-0.2,1-0.4,1.9-0.4c1.6,0,2.1,1,2.1,2.1v1.7c0,0.5,0,0.9,0.1,1.2H19.3z M19.1,6.1
		c-0.8,0-1.4,0.2-1.4,0.8c0,0.4,0.3,0.6,0.6,0.6c0.4,0,0.7-0.3,0.8-0.6c0-0.1,0-0.2,0-0.3V6.1z"/>
	<path d="M21.8,5.1c0-0.6,0-1.2,0-1.6H23l0.1,0.7h0c0.4-0.5,0.9-0.8,1.6-0.8c1.1,0,2,0.9,2,2.5c0,1.8-1.1,2.6-2.2,2.6
		c-0.6,0-1-0.2-1.3-0.6h0v2.4h-1.5V5.1z M23.3,6.3c0,0.1,0,0.2,0,0.3c0.1,0.4,0.4,0.7,0.9,0.7c0.7,0,1-0.5,1-1.4
		c0-0.8-0.3-1.4-1-1.4c-0.4,0-0.8,0.3-0.9,0.8c0,0.1,0,0.2,0,0.3V6.3z"/>
	<path d="M27.7,5.1c0-0.6,0-1.2,0-1.6H29l0.1,0.7h0c0.4-0.5,0.9-0.8,1.6-0.8c1.1,0,2,0.9,2,2.5c0,1.8-1.1,2.6-2.2,2.6
		c-0.6,0-1-0.2-1.3-0.6h0v2.4h-1.5V5.1z M29.3,6.3c0,0.1,0,0.2,0,0.3c0.1,0.4,0.4,0.7,0.9,0.7c0.7,0,1-0.5,1-1.4
		c0-0.8-0.3-1.4-1-1.4c-0.4,0-0.8,0.3-0.9,0.8c0,0.1,0,0.2,0,0.3V6.3z"/>
	<path d="M34.9,6.4c0,0.6,0.7,0.9,1.4,0.9c0.5,0,0.9-0.1,1.3-0.2l0.2,1c-0.5,0.2-1.1,0.3-1.8,0.3c-1.7,0-2.6-1-2.6-2.5
		c0-1.2,0.8-2.6,2.5-2.6c1.6,0,2.2,1.2,2.2,2.4c0,0.3,0,0.5,0,0.6H34.9z M36.7,5.4c0-0.4-0.2-1-0.9-1c-0.6,0-0.9,0.6-0.9,1H36.7z"/>
	<path d="M43.8,1.3v5.6c0,0.5,0,1.1,0,1.5h-1.3l-0.1-0.7h0c-0.3,0.5-0.9,0.8-1.5,0.8c-1.2,0-2.1-1-2.1-2.5c0-1.6,1-2.6,2.2-2.6
		c0.6,0,1.1,0.2,1.3,0.5h0V1.3H43.8z M42.3,5.6c0-0.1,0-0.2,0-0.3c-0.1-0.4-0.4-0.7-0.9-0.7c-0.7,0-1,0.6-1,1.4c0,0.8,0.4,1.3,1,1.3
		c0.4,0,0.8-0.3,0.9-0.7c0-0.1,0-0.2,0-0.3V5.6z"/>
</g>
<g>
	<path d="M33.4,9c0,0.3-0.2,0.5-0.6,0.5c-0.3,0-0.5-0.2-0.5-0.5c0-0.3,0.2-0.5,0.5-0.5C33.2,8.4,33.4,8.7,33.4,9z M32.5,15.2v-4.8
		h0.9v4.8H32.5z"/>
	<path d="M34.8,11.7c0-0.5,0-0.9,0-1.3h0.8l0.1,0.8h0c0.2-0.5,0.8-0.9,1.6-0.9c0.7,0,1.7,0.4,1.7,2.1v2.9H38v-2.8
		c0-0.8-0.3-1.4-1.1-1.4c-0.6,0-1,0.4-1.2,0.9c0,0.1-0.1,0.3-0.1,0.4v2.9h-0.9V11.7z"/>
	<path d="M43.8,15c-0.2,0.1-0.7,0.3-1.4,0.3c-1.5,0-2.4-1-2.4-2.5c0-1.5,1-2.6,2.6-2.6c0.5,0,1,0.1,1.2,0.3l-0.2,0.7
		c-0.2-0.1-0.5-0.2-1-0.2c-1.1,0-1.7,0.8-1.7,1.8c0,1.1,0.7,1.8,1.7,1.8c0.5,0,0.8-0.1,1.1-0.2L43.8,15z"/>
</g>
</svg>
